
        <svg xmlns="http://www.w3.org/2000/svg" xmlns:xlink="http://www.w3.org/1999/xlink" version="1.1" width="3171.4285714285716" 
        height="1696.8303479132076" viewBox="0 0 3171.4285714285716 1696.8303479132076">
			
			<g transform="scale(8.571428571428571) translate(10, 10)">
				<defs id="SvgjsDefs8264"><linearGradient id="SvgjsLinearGradient8271"><stop id="SvgjsStop8272" stop-color="#905e26" offset="0"></stop><stop id="SvgjsStop8273" stop-color="#f5ec9b" offset="0.5"></stop><stop id="SvgjsStop8274" stop-color="#905e26" offset="1"></stop></linearGradient><linearGradient id="SvgjsLinearGradient8275"><stop id="SvgjsStop8276" stop-color="#905e26" offset="0"></stop><stop id="SvgjsStop8277" stop-color="#f5ec9b" offset="0.5"></stop><stop id="SvgjsStop8278" stop-color="#905e26" offset="1"></stop></linearGradient><linearGradient id="SvgjsLinearGradient8279"><stop id="SvgjsStop8280" stop-color="#905e26" offset="0"></stop><stop id="SvgjsStop8281" stop-color="#f5ec9b" offset="0.5"></stop><stop id="SvgjsStop8282" stop-color="#905e26" offset="1"></stop></linearGradient></defs><g id="SvgjsG8265" featureKey="symbolFeature-0" transform="matrix(1.15131652916615,0,0,1.15131652916615,118.1216735416925,-8.484408298940469)" fill="url(#SvgjsLinearGradient8271)"><path xmlns="http://www.w3.org/2000/svg" d="M48.9677429,18.6878185c-1.8359375-2.840332-2.4189453-5.3867188-1.7319336-7.5673828  c0.8085938-2.5673828,3.0322266-3.5375972,3.2827148-3.639648c0.769043-0.3129883,1.6425781,0.0556641,1.9550781,0.8232417  c0.3105469,0.7626953-0.0517578,1.6318359-0.809082,1.9492188c-0.0430908,0.019043-0.4313965,0.2043457-0.8256836,0.5882568  c-0.2940063,0.2862549-0.5911865,0.6796875-0.7519531,1.2139893c-0.2313843,0.7681885-0.1391602,1.7094116,0.2550659,2.7775269  c0.2555542,0.6923218,0.6351318,1.4367065,1.1453247,2.2258911c1.4106445,2.1821289,1.8652344,4.2597656,1.3510742,6.1748047  c-0.703125,2.6191406-2.9331055,3.824707-3.1850586,3.953125c-0.2182617,0.1118164-0.4516602,0.1650391-0.6816406,0.1650391  c-0.5454102,0-1.0712891-0.2988281-1.3364258-0.8178711c-0.3774414-0.7373047-0.0849609-1.6411133,0.652832-2.0180664  c0.0006104-0.0006104,0.4873047-0.2697754,0.9468994-0.7896118c0.2928467-0.3312378,0.5747681-0.7623901,0.7127686-1.296814  c0.1781006-0.6896973,0.0723877-1.4746704-0.2614746-2.3287354C49.5093079,19.6482677,49.287384,19.1821423,48.9677429,18.6878185z   M29.6861267,23.1007824c0.3338013,0.8540649,0.4395142,1.6390381,0.2611084,2.3287354  c-0.1377563,0.5343628-0.4195557,0.9655151-0.7124023,1.2967529c-0.4596558,0.5198975-0.9466553,0.7890625-0.9472656,0.7896729  c-0.737793,0.3769531-1.0302734,1.2807617-0.652832,2.0180664c0.2651367,0.519043,0.7910156,0.8178711,1.3364258,0.8178711  c0.2299805,0,0.4633789-0.0532227,0.6816406-0.1650391c0.2519531-0.128418,2.4819336-1.3339844,3.1850586-3.953125  c0.5141602-1.9150391,0.0595703-3.9926758-1.3505859-6.1748047c-0.5102539-0.7893066-0.8898926-1.5338135-1.1453857-2.2261963  c-0.394165-1.0680542-0.4863892-2.0092773-0.2550049-2.77771c0.1607666-0.5342407,0.4578857-0.9276123,0.7518311-1.2138062  c0.3934937-0.3831177,0.7809448-0.5683594,0.8248291-0.5879517c0.7578125-0.3173828,1.1201172-1.1865234,0.8095703-1.9492188  c-0.3120117-0.7675781-1.1879883-1.1362305-1.9550781-0.8232422c-0.2504883,0.1020508-2.4736328,1.0722656-3.2822266,3.6396484  c-0.6870117,2.1806641-0.1040039,4.7265625,1.7319336,7.5668945C29.287262,22.1818981,29.5091858,22.6481457,29.6861267,23.1007824z   M69.6863708,23.1012707c0.3335571,0.8540039,0.4389038,1.638855,0.2608643,2.3287354  c-0.1378784,0.5339355-0.4194946,0.9648438-0.7120972,1.2959595c-0.4595947,0.5200195-0.9464722,0.7893677-0.9470825,0.789978  c-0.7382813,0.3769531-1.0302734,1.2807617-0.6533203,2.0180664c0.265625,0.519043,0.7919922,0.8178711,1.3369141,0.8178711  c0.2304688,0,0.4628906-0.0532227,0.6816406-0.1650391c0.2519531-0.128418,2.4814453-1.3339844,3.1845703-3.953125  c0.5146484-1.9150391,0.0595703-3.9921875-1.3505859-6.1748047c-0.5100708-0.7887573-0.8897095-1.5327759-1.1452637-2.2247314  c-0.3947144-1.0686646-0.4868774-2.010376-0.255127-2.7791748c0.1608276-0.5344238,0.4581299-0.9279175,0.7521973-1.2141113  c0.3934326-0.3828735,0.7808228-0.5681152,0.8249512-0.5876465c0.7578125-0.3173828,1.1201172-1.1865234,0.8095703-1.9492188  c-0.3125-0.7661133-1.1884766-1.1381836-1.9550781-0.8232422c-0.2509766,0.1020508-2.4746094,1.0722656-3.2832031,3.6396484  c-0.6865234,2.1806641-0.1035156,4.7265625,1.7324219,7.5668945C69.2875061,22.1820202,69.509491,22.6484509,69.6863708,23.1012707z   M94.1669617,65.659317v3.9893799c1.1118164,0.2536011,1.9453125,1.2454834,1.9453125,2.4331665v4.4172974  c0.8190308,0.4108887,1.3876953,1.2498779,1.3876953,2.2272339v1.4042969c0,6.8925781-5.6074219,12.5-12.5,12.5h-70  c-6.8925171,0-12.499939-5.6074219-12.499939-12.5v-1.4042969c0-0.9771118,0.5686035-1.8158569,1.387207-2.2268677v-4.4176636  c0-1.1878052,0.8340454-2.1798706,1.9458008-2.4332886v-3.9888916c-0.3165894-0.3951416-0.5019531-0.8848267-0.5019531-1.3942261  v-5.2792969H5.0000305c-1.378418,0-2.5-1.1210938-2.5-2.5v-9.996582c0-5.6743164,6.262207-10.2905273,13.9589233-10.2905273  c2.5634766,0,5.0698242,0.5151367,7.2485352,1.4902344c0.7216797,0.3232422,1.5507813,0.3232422,2.2734375,0  c4.3579102-1.9506836,10.1411133-1.949707,14.4970703,0c0.7226563,0.3232422,1.5507813,0.3232422,2.2734375,0  c4.3579102-1.9506836,10.140625-1.949707,14.4970703,0c0.7226563,0.3232422,1.5507813,0.3232422,2.2734375,0  c4.3569336-1.9501953,10.1401367-1.9501953,14.4975586,0c0.7216797,0.3232422,1.5517578,0.3222656,2.2734375,0  c2.1777344-0.9750977,4.6845703-1.4902344,7.2480469-1.4902344c7.6972656,0,13.9589844,4.6162109,13.9589844,10.2905273v9.996582  c0,1.3789063-1.1210938,2.5-2.5,2.5h-0.3310547v5.2792969C94.6689148,64.7746735,94.4836731,65.2642365,94.1669617,65.659317z   M5.5000305,79.2263947v0.9042969c0,5.2382813,4.2616577,9.5,9.499939,9.5h70c5.2382813,0,9.5-4.2617188,9.5-9.5v-0.9042969  H5.5000305z M36.1064148,76.2263947h27.7861328v-3.6445313H36.1064148V76.2263947z M47.9980164,69.5818634V66.473526  c-1.6973267-0.1338501-2.7980957-0.4296875-3.8691406-0.718811c-1.3120117-0.3535156-2.5512695-0.6884766-5.0952148-0.6884766  c-2.543457,0-3.7822266,0.3349609-5.09375,0.6884766c-1.4428711,0.3896484-2.9345703,0.7929688-5.8759766,0.7929688  c-2.9428711,0-4.4355469-0.4033203-5.8789063-0.7929688c-1.3129883-0.3535156-2.5527344-0.6884766-5.0981445-0.6884766  s-3.7851563,0.3349609-5.0976563,0.6894531c-0.9075928,0.244751-1.8461914,0.4945679-3.156189,0.6470337v3.1791382H47.9980164z   M91.1669617,69.5818634v-3.1793213c-1.3088989-0.1525269-2.24646-0.4022217-3.1533203-0.6468506  c-1.3125-0.3544922-2.5507813-0.6894531-5.0947266-0.6894531s-3.7822266,0.3349609-5.0947266,0.6884766  c-1.4423828,0.3896484-2.9345703,0.7929688-5.8759766,0.7929688c-2.9423828,0-4.4345703-0.4033203-5.8769531-0.7929688  c-1.3125-0.3535156-2.5517578-0.6884766-5.0957031-0.6884766c-2.5429688,0-3.7817383,0.3349609-5.0932617,0.6884766  c-1.2702026,0.3431396-2.5813599,0.696106-4.8842773,0.7756958v3.0514526H91.1669617z M66.8925476,76.2263947h26.2197266v-3.6445313  H66.8925476V76.2263947z M91.6689148,58.9861603H8.3310852v4.4560547c1.1830444-0.1259766,2.0097046-0.3496094,2.8764038-0.5830078  c1.4433594-0.3896484,2.9360352-0.7929688,5.8793945-0.7929688s4.4360352,0.4033203,5.8798828,0.7929688  c1.3125,0.3535156,2.5517578,0.6884766,5.097168,0.6884766c2.543457,0,3.7822266-0.3349609,5.09375-0.6884766  c1.4428711-0.3896484,2.9345703-0.7929688,5.8759766-0.7929688c2.9418945,0,4.434082,0.4033203,5.8774414,0.7929688  c1.3120117,0.3535156,2.5512695,0.6884766,5.0957031,0.6884766c2.5429688,0,3.7817383-0.3349609,5.0932617-0.6884766  c1.4423828-0.3896484,2.934082-0.7929688,5.8754883-0.7929688c2.9423828,0,4.4345703,0.4033203,5.8769531,0.7929688  c1.3125,0.3535156,2.5517578,0.6884766,5.0957031,0.6884766s3.7822266-0.3349609,5.0947266-0.6884766  c1.4423828-0.3896484,2.9345703-0.7929688,5.8759766-0.7929688c2.9423828,0,4.4335938,0.4033203,5.8769531,0.7929688  c0.8652344,0.2333984,1.6914063,0.4570313,2.8730469,0.5830078V58.9861603z M6.8872375,72.5818634v3.6445313h26.2191772v-3.6445313  H6.8872375z M94.4999695,55.9861603v-9.496582c0-4.0200195-4.9160156-7.2905273-10.9589844-7.2905273  c-1.9124146,0-3.7639771,0.3555298-5.4178467,0.9986572L73.547821,45.923172  c-0.2958984,0.3706055-0.7324219,0.5634766-1.1728516,0.5634766c-0.328125,0-0.6591797-0.1074219-0.9355469-0.328125  c-0.6474609-0.5170898-0.7529297-1.4609375-0.2353516-2.1083984l2.6206055-3.2793579  c-0.3509521-0.0829468-0.6968994-0.1937256-1.0307617-0.3432007c-3.543396-1.5857544-8.3200073-1.5998535-11.8949585-0.0568237  l-4.4365845,5.5524292c-0.2963867,0.3706055-0.7324219,0.5634766-1.1728516,0.5634766  c-0.328125,0-0.6586914-0.1074219-0.9355469-0.328125c-0.6469727-0.5170898-0.7524414-1.4609375-0.2353516-2.1083984  l2.6758423-3.3488159c-0.2614746-0.0748291-0.5203247-0.161377-0.7715454-0.2737427  c-3.590332-1.6069336-8.4536133-1.6079102-12.0458984,0c-0.0987549,0.0441895-0.2006226,0.0776367-0.3011475,0.1160278  l-4.2989502,5.3795776c-0.2963867,0.3706055-0.7324219,0.5634766-1.1728516,0.5634766  c-0.3286133,0-0.6591797-0.1074219-0.9355469-0.328125c-0.6469727-0.5170898-0.7524414-1.4609375-0.2353516-2.1083984  l2.7359009-3.423645c-0.1743164-0.0586548-0.34729-0.1231689-0.5166626-0.1989136  c-3.590332-1.6069336-8.4536133-1.6079102-12.0458984,0c-0.2390747,0.1070557-0.4851074,0.1907349-0.7336426,0.2636719  l-4.1809082,5.2319336c-0.2963867,0.3706055-0.7324219,0.5634766-1.1728516,0.5634766  c-0.3286133,0-0.6591797-0.1074219-0.9355469-0.328125c-0.6469727-0.5170898-0.7524414-1.4609375-0.2353516-2.1083984  l2.8098755-3.5162354c-0.092041-0.0356445-0.1856689-0.0657959-0.2761841-0.1063232  c-1.7958984-0.8037109-3.8789063-1.2285156-6.0229492-1.2285156c-6.0429688,0-10.9589233,3.2705078-10.9589233,7.2905273v9.496582  H94.4999695z"></path></g><g id="SvgjsG8266" featureKey="nameFeature-0" transform="matrix(1.0988321363560543,0,0,1.0988321363560543,-1.0109256492818088,106.132613765697)" fill="url(#SvgjsLinearGradient8275)"><path d="M9.32 40 l0 -21.2 l-8.4 0 l0 -6.8 l24.56 0 l0 6.8 l-8.4 0 l0 21.2 l-7.76 0 z M28.44 40 l0 -29.2 l7.6 0 l0 10.52 c1.4 -1.8 3.4 -3.44 6.48 -3.44 c4.6 0 7.36 3.04 7.36 7.96 l0 14.16 l-7.6 0 l0 -11.72 c0 -2.36 -1.24 -3.64 -3.04 -3.64 c-1.84 0 -3.2 1.28 -3.2 3.64 l0 11.72 l-7.6 0 z M60.00000000000001 40.48 c-4.12 0 -7.28 -2.36 -7.28 -6.68 l0 -0.08 c0 -4.48 3.4 -6.8 8.48 -6.8 c2 0 3.96 0.4 5.2 0.84 l0 -0.36 c0 -2.24 -1.4 -3.52 -4.32 -3.52 c-2.28 0 -4.04 0.44 -5.96 1.2 l-1.56 -5.36 c2.44 -1 5.04 -1.68 8.76 -1.68 c3.88 0 6.52 0.92 8.24 2.64 c1.64 1.6 2.32 3.84 2.32 6.88 l0 12.44 l-7.52 0 l0 -2.24 c-1.48 1.64 -3.52 2.72 -6.36 2.72 z M62.720000000000006 35.72 c2.2 0 3.76 -1.4 3.76 -3.56 l0 -1 c-0.76 -0.32 -1.84 -0.56 -2.96 -0.56 c-2.2 0 -3.48 1.08 -3.48 2.68 l0 0.08 c0 1.48 1.12 2.36 2.68 2.36 z M77.76 16.4 l0 -5.6 l7.92 0 l0 5.6 l-7.92 0 z M77.92 40 l0 -21.64 l7.6 0 l0 21.64 l-7.6 0 z M97.03999999999999 40 l0 -21.2 l-8.4 0 l0 -6.8 l24.56 0 l0 6.8 l-8.4 0 l0 21.2 l-7.76 0 z M119.56 40.48 c-4.12 0 -7.28 -2.36 -7.28 -6.68 l0 -0.08 c0 -4.48 3.4 -6.8 8.48 -6.8 c2 0 3.96 0.4 5.2 0.84 l0 -0.36 c0 -2.24 -1.4 -3.52 -4.32 -3.52 c-2.28 0 -4.04 0.44 -5.96 1.2 l-1.56 -5.36 c2.44 -1 5.04 -1.68 8.76 -1.68 c3.88 0 6.52 0.92 8.24 2.64 c1.64 1.6 2.32 3.84 2.32 6.88 l0 12.44 l-7.52 0 l0 -2.24 c-1.48 1.64 -3.52 2.72 -6.36 2.72 z M122.28 35.72 c2.2 0 3.76 -1.4 3.76 -3.56 l0 -1 c-0.76 -0.32 -1.84 -0.56 -2.96 -0.56 c-2.2 0 -3.48 1.08 -3.48 2.68 l0 0.08 c0 1.48 1.12 2.36 2.68 2.36 z M145.92000000000002 40.48 c-3.64 0 -7.24 -1.04 -10.24 -3.2 l2.84 -4.6 c2.48 1.64 5.2 2.48 7.44 2.48 c1.32 0 1.92 -0.4 1.92 -1.16 l0 -0.08 c0 -0.84 -1.2 -1.2 -3.48 -1.84 c-4.28 -1.12 -7.68 -2.56 -7.68 -6.92 l0 -0.08 c0 -4.6 3.68 -7.16 8.68 -7.16 c3.16 0 6.44 0.92 8.92 2.52 l-2.6 4.8 c-2.24 -1.24 -4.68 -2 -6.4 -2 c-1.16 0 -1.76 0.44 -1.76 1.04 l0 0.08 c0 0.84 1.24 1.24 3.52 1.92 c4.28 1.2 7.68 2.68 7.68 6.88 l0 0.08 c0 4.76 -3.56 7.24 -8.84 7.24 z M166.07999999999998 40.44 c-4.56 0 -7.28 -2 -7.28 -7.16 l0 -8.8 l-2.56 0 l0 -6.12 l2.56 0 l0 -5.48 l7.6 0 l0 5.48 l5.04 0 l0 6.12 l-5.04 0 l0 7.32 c0 1.52 0.68 2.16 2.08 2.16 c1 0 1.96 -0.28 2.88 -0.72 l0 5.96 c-1.36 0.76 -3.16 1.24 -5.28 1.24 z M174.72 16.4 l0 -5.6 l7.92 0 l0 5.6 l-7.92 0 z M174.88 40 l0 -21.64 l7.6 0 l0 21.64 l-7.6 0 z M197.16 40.52 c-6.52 0 -11.32 -5.12 -11.32 -11.24 l0 -0.08 c0 -6.12 4.76 -11.28 11.6 -11.28 c4.44 0 7.4 1.92 9.24 4.84 l-5.16 3.84 c-1.04 -1.44 -2.2 -2.28 -4.04 -2.28 c-2.44 0 -4.24 2.16 -4.24 4.8 l0 0.08 c0 2.8 1.76 4.92 4.32 4.92 c1.8 0 2.96 -0.84 4.16 -2.24 l5.08 3.68 c-2 2.96 -4.88 4.96 -9.64 4.96 z M221 40 l0 -28 l14.36 0 c3.52 0 6 0.88 7.64 2.52 c1.12 1.12 1.8 2.6 1.8 4.52 l0 0.08 c0 3.24 -1.84 5.16 -4.32 6.24 c3.4 1.12 5.56 3.04 5.56 6.84 l0 0.08 c0 4.8 -3.92 7.72 -10.6 7.72 l-14.44 0 z M228.56 23.16 l4.88 0 c2.36 0 3.68 -0.8 3.68 -2.44 l0 -0.08 c0 -1.52 -1.2 -2.4 -3.52 -2.4 l-5.04 0 l0 4.92 z M228.56 33.76 l6 0 c2.36 0 3.72 -0.92 3.72 -2.56 l0 -0.08 c0 -1.52 -1.2 -2.52 -3.8 -2.52 l-5.92 0 l0 5.16 z M249.16 16.4 l0 -5.6 l7.92 0 l0 5.6 l-7.92 0 z M249.32 40 l0 -21.64 l7.6 0 l0 21.64 l-7.6 0 z M269.76 40.44 c-4.56 0 -7.28 -2 -7.28 -7.16 l0 -8.8 l-2.56 0 l0 -6.12 l2.56 0 l0 -5.48 l7.6 0 l0 5.48 l5.04 0 l0 6.12 l-5.04 0 l0 7.32 c0 1.52 0.68 2.16 2.08 2.16 c1 0 1.96 -0.28 2.88 -0.72 l0 5.96 c-1.36 0.76 -3.16 1.24 -5.28 1.24 z M288.52 40.52 c-6.8 0 -11.6 -4.52 -11.6 -11.24 l0 -0.08 c0 -6.32 4.52 -11.32 10.92 -11.32 c7.48 0 10.92 5.48 10.92 11.84 c0 0.48 0 1.04 -0.04 1.56 l-14.48 0 c0.6 2.36 2.32 3.56 4.68 3.56 c1.8 0 3.24 -0.68 4.8 -2.2 l4.2 3.48 c-2.08 2.64 -5.08 4.4 -9.4 4.4 z M284.12 27.4 l7.52 0 c-0.28 -2.4 -1.68 -3.92 -3.76 -3.92 c-2 0 -3.36 1.56 -3.76 3.92 z M310.59999999999997 40.48 c-3.64 0 -7.24 -1.04 -10.24 -3.2 l2.84 -4.6 c2.48 1.64 5.2 2.48 7.44 2.48 c1.32 0 1.92 -0.4 1.92 -1.16 l0 -0.08 c0 -0.84 -1.2 -1.2 -3.48 -1.84 c-4.28 -1.12 -7.68 -2.56 -7.68 -6.92 l0 -0.08 c0 -4.6 3.68 -7.16 8.68 -7.16 c3.16 0 6.44 0.92 8.92 2.52 l-2.6 4.8 c-2.24 -1.24 -4.68 -2 -6.4 -2 c-1.16 0 -1.76 0.44 -1.76 1.04 l0 0.08 c0 0.84 1.24 1.24 3.52 1.92 c4.28 1.2 7.68 2.68 7.68 6.88 l0 0.08 c0 4.76 -3.56 7.24 -8.84 7.24 z"></path></g><g id="SvgjsG8267" featureKey="sloganFeature-0" transform="matrix(0.6646411438819018,0,0,0.6646411438819018,33.870110182171004,164.53778961023005)" fill="url(#SvgjsLinearGradient8279)"><path d="M6.5 6 c4.64 0 7.2 2.84 7.2 7 s-2.56 7 -7.2 7 l-4.8 0 l0 -14 l4.8 0 z M6.6 18.28 c3.4 0 5.3 -2.12 5.3 -5.28 c0 -3.18 -1.9 -5.28 -5.3 -5.28 l-3.1 0 l0 10.56 l3.1 0 z M24.939999999999998 18.28 l0.12 1.72 l-8.52 0 l0 -14 l8.12 0 l0.14 1.72 l-6.46 0 l0 3.42 l4.38 0 l0 1.72 l-4.38 0 l0 5.42 l6.6 0 z M27.66 20 l0 -14 l1.8 0 l0 14 l-1.8 0 z M42.44 6 l1.8 0 l0 14.2 l-0.22 0 l-9.4 -9.98 l0 9.78 l-1.78 0 l0 -14.2 l0.2 0 l9.4 9.98 l0 -9.78 z M63.2 7.720000000000001 l-4.08 0 l0 12.28 l-1.8 0 l0 -12.28 l-4.1 0 l0.12 -1.72 l9.74 0 z M65.38000000000001 20 l0 -14 l1.8 0 l0 14 l-1.8 0 z M70.00000000000001 13 c0 -4.04 3.18 -7.2 7.18 -7.2 c1.68 0 3.28 0.56 4.7 1.64 l-0.9 1.4 c-1.18 -0.9 -2.4 -1.34 -3.8 -1.34 c-3.02 0 -5.38 2.42 -5.38 5.5 s2.38 5.5 5.38 5.5 c1.52 0 2.82 -0.48 3.8 -1.42 l0.92 1.38 c-1.22 1.1 -2.94 1.74 -4.72 1.74 c-4 0 -7.18 -3.18 -7.18 -7.2 z M92.68 20 l-4.14 -6.38 l-2.24 2.78 l0 3.6 l-1.8 0 l0 -14 l1.8 0 l0 7.62 l6.22 -7.62 l2.18 0 l-4.94 6.12 l5.02 7.88 l-2.1 0 z M105.54 18.28 l0.12 1.72 l-8.52 0 l0 -14 l8.12 0 l0.14 1.72 l-6.46 0 l0 3.42 l4.38 0 l0 1.72 l-4.38 0 l0 5.42 l6.6 0 z M117.00000000000001 7.720000000000001 l-4.08 0 l0 12.28 l-1.8 0 l0 -12.28 l-4.1 0 l0.12 -1.72 l9.74 0 z M127.82000000000002 7.720000000000001 l0 4.32 l4.28 0 l0 1.72 l-4.28 0 l0 6.24 l-1.8 0 l0 -14 l7.96 0 l0.12 1.72 l-6.28 0 z M139.70000000000002 4.16 c-0.56 0 -1 -0.44 -1 -0.98 c0 -0.52 0.44 -0.98 1 -0.98 c0.5 0 0.96 0.46 0.96 0.98 c0 0.54 -0.46 0.98 -0.96 0.98 z M144.56000000000003 4.16 c-0.56 0 -1 -0.44 -1 -0.98 c0 -0.52 0.44 -0.98 1 -0.98 c0.5 0 0.96 0.46 0.96 0.98 c0 0.54 -0.46 0.98 -0.96 0.98 z M136.54000000000002 14.46 l0 -8.46 l1.8 0 l0 8.32 c0 2.7 1.56 4.08 3.76 4.08 s3.78 -1.38 3.78 -4.08 l0 -8.32 l1.78 0 l0 8.46 c0 3.64 -2.08 5.74 -5.56 5.74 c-3.46 0 -5.56 -2.1 -5.56 -5.74 z M161.10000000000002 11.06 c0 2.26 -1.06 4.2 -3.24 4.84 l3.02 4.1 l-2.16 0 l-2.86 -3.88 l-3.14 0 l0 3.88 l-1.8 0 l0 -14 l5.28 0 c3.3 0 4.9 2.28 4.9 5.06 z M152.72000000000003 7.68 l0 6.74 l3.4 0 c2.26 0 3.18 -1.66 3.18 -3.36 s-0.92 -3.38 -3.18 -3.38 l-3.4 0 z M179.12000000000003 18.28 l0.12 1.72 l-8.52 0 l0 -14 l8.12 0 l0.14 1.72 l-6.46 0 l0 3.42 l4.38 0 l0 1.72 l-4.38 0 l0 5.42 l6.6 0 z M181.84000000000003 20 l0 -14 l1.8 0 l0 14 l-1.8 0 z M196.62000000000006 6 l1.8 0 l0 14.2 l-0.22 0 l-9.4 -9.98 l0 9.78 l-1.78 0 l0 -14.2 l0.2 0 l9.4 9.98 l0 -9.78 z M210.20000000000005 18.28 l0.12 1.72 l-8.52 0 l0 -14 l8.12 0 l0.14 1.72 l-6.46 0 l0 3.42 l4.38 0 l0 1.72 l-4.38 0 l0 5.42 l6.6 0 z M222.52000000000007 6 l1.8 0 l0 14.2 l-0.22 0 l-9.4 -9.98 l0 9.78 l-1.78 0 l0 -14.2 l0.2 0 l9.4 9.98 l0 -9.78 z M246.14000000000007 11.88 l0 6.86 c-1.08 0.82 -2.56 1.46 -4.9 1.46 c-4.4 0 -7.26 -3.2 -7.26 -7.2 s3.02 -7.2 7.22 -7.2 c1.94 0 3.54 0.7 4.8 1.7 l-0.94 1.36 c-1.1 -0.88 -2.46 -1.34 -3.86 -1.34 c-3 0 -5.34 2.28 -5.34 5.48 s2.16 5.46 5.38 5.46 c1.22 0 2.26 -0.26 3.1 -0.66 l0 -4.18 l-2.7 0 l0.12 -1.74 l4.38 0 z M257.7200000000001 18.28 l0.12 1.72 l-8.52 0 l0 -14 l8.12 0 l0.14 1.72 l-6.46 0 l0 3.42 l4.38 0 l0 1.72 l-4.38 0 l0 5.42 l6.6 0 z M259.6600000000001 18.54 c0.88 0.82 2.7 1.66 4.52 1.66 c2.8 0 4.58 -1.44 4.58 -3.7 c0 -1.84 -0.88 -2.92 -3.92 -4.64 c-2.32 -1.34 -2.88 -1.78 -2.88 -2.66 c0 -0.94 0.88 -1.68 2.36 -1.68 c0.86 0 2 0.38 2.66 0.8 l0.96 -1.44 c-0.94 -0.62 -2.42 -1.08 -3.6 -1.08 c-2.58 0 -4.3 1.48 -4.3 3.42 c0 1.72 0.86 2.58 3.5 4.02 c2.34 1.28 3.3 2.22 3.3 3.24 c0 1.2 -1.04 1.92 -2.66 1.92 c-1.4 0 -2.8 -0.66 -3.5 -1.3 z M270.80000000000007 13 c0 -4.04 3.18 -7.2 7.18 -7.2 c1.68 0 3.28 0.56 4.7 1.64 l-0.9 1.4 c-1.18 -0.9 -2.4 -1.34 -3.8 -1.34 c-3.02 0 -5.38 2.42 -5.38 5.5 s2.38 5.5 5.38 5.5 c1.52 0 2.82 -0.48 3.8 -1.42 l0.92 1.38 c-1.22 1.1 -2.94 1.74 -4.72 1.74 c-4 0 -7.18 -3.18 -7.18 -7.2 z M294.0400000000001 6 l1.8 0 l0 14 l-1.8 0 l0 -6.44 l-6.94 0 l0 6.44 l-1.8 0 l0 -14 l1.8 0 l0 5.84 l6.94 0 l0 -5.84 z M312.6000000000001 5.800000000000001 l0.22 0 l0 14.2 l-1.78 0 l0 -9.42 l-4.96 6.48 l-0.12 0 l-4.96 -6.46 l0 9.4 l-1.78 0 l0 -14.2 l0.2 0 l6.6 8.4 z M325.4000000000001 20 l-1.22 -2.84 l-6.24 0 l-1.22 2.84 l-1.92 0 l6.16 -14.2 l0.2 0 l6.16 14.2 l-1.92 0 z M318.66000000000014 15.48 l4.8 0 l-2.4 -5.54 z M328.7600000000001 13 c0 -4.04 3.18 -7.2 7.18 -7.2 c1.68 0 3.28 0.56 4.7 1.64 l-0.9 1.4 c-1.18 -0.9 -2.4 -1.34 -3.8 -1.34 c-3.02 0 -5.38 2.42 -5.38 5.5 s2.38 5.5 5.38 5.5 c1.52 0 2.82 -0.48 3.8 -1.42 l0.92 1.38 c-1.22 1.1 -2.94 1.74 -4.72 1.74 c-4 0 -7.18 -3.18 -7.18 -7.2 z M351.4400000000001 20 l-4.14 -6.38 l-2.24 2.78 l0 3.6 l-1.8 0 l0 -14 l1.8 0 l0 7.62 l6.22 -7.62 l2.18 0 l-4.94 6.12 l5.02 7.88 l-2.1 0 z M355.1200000000001 18.54 c0.88 0.82 2.7 1.66 4.52 1.66 c2.8 0 4.58 -1.44 4.58 -3.7 c0 -1.84 -0.88 -2.92 -3.92 -4.64 c-2.32 -1.34 -2.88 -1.78 -2.88 -2.66 c0 -0.94 0.88 -1.68 2.36 -1.68 c0.86 0 2 0.38 2.66 0.8 l0.96 -1.44 c-0.94 -0.62 -2.42 -1.08 -3.6 -1.08 c-2.58 0 -4.3 1.48 -4.3 3.42 c0 1.72 0.86 2.58 3.5 4.02 c2.34 1.28 3.3 2.22 3.3 3.24 c0 1.2 -1.04 1.92 -2.66 1.92 c-1.4 0 -2.8 -0.66 -3.5 -1.3 z M371.5600000000001 12.780000000000001 l0 1.62 l-4.74 0 l0 -1.62 l4.74 0 z M385.1400000000001 11.06 c0 2.26 -1.06 4.2 -3.24 4.84 l3.02 4.1 l-2.16 0 l-2.86 -3.88 l-3.14 0 l0 3.88 l-1.8 0 l0 -14 l5.28 0 c3.3 0 4.9 2.28 4.9 5.06 z M376.7600000000001 7.68 l0 6.74 l3.4 0 c2.26 0 3.18 -1.66 3.18 -3.36 s-0.92 -3.38 -3.18 -3.38 l-3.4 0 z M397.12000000000006 20 l-1.22 -2.84 l-6.24 0 l-1.22 2.84 l-1.92 0 l6.16 -14.2 l0.2 0 l6.16 14.2 l-1.92 0 z M390.3800000000001 15.48 l4.8 0 l-2.4 -5.54 z M399.8400000000001 6 l1.96 0 l4.24 10.24 l4.26 -10.24 l1.96 0 l-6.1 14.2 l-0.22 0 z M422.8600000000001 18.28 l0.12 1.72 l-8.52 0 l0 -14 l8.12 0 l0.14 1.72 l-6.46 0 l0 3.42 l4.38 0 l0 1.72 l-4.38 0 l0 5.42 l6.6 0 z"></path></g>
			</g>
		</svg>
	