<svg version="1.1" id="Layer_1" xmlns="http://www.w3.org/2000/svg" xmlns:xlink="http://www.w3.org/1999/xlink" x="0px" y="0px"
     width="100%" viewBox="0 0 3305 1766" enable-background="new 0 0 3305 1766" xml:space="preserve">

<path fill="#C5B266" opacity="0.000000" stroke="none" 
    d="
M1940.000000,1768.000000 
	C1293.333374,1768.000000 647.666687,1768.000000 2.000000,1768.000000 
	C2.000000,1179.333374 2.000000,590.666687 2.000000,2.000000 
	C1104.000000,2.000000 2206.000000,2.000000 3308.000000,2.000000 
	C3308.000000,590.666687 3308.000000,1179.333374 3308.000000,1768.000000 
	C2852.333252,1768.000000 2396.666748,1768.000000 1940.000000,1768.000000 
M2135.689209,1096.760742 
	C2135.688477,1087.096313 2135.753906,1077.431274 2135.669678,1067.767578 
	C2135.577637,1057.250244 2131.102539,1049.224243 2121.761963,1044.115601 
	C2119.794434,1043.039551 2117.769043,1042.068848 2115.694092,1041.010742 
	C2115.694092,1029.124390 2115.654785,1017.805725 2115.731201,1006.487793 
	C2115.744629,1004.523438 2115.588135,1002.059509 2116.636719,1000.686951 
	C2121.129639,994.805664 2120.332275,988.092957 2120.344482,981.476013 
	C2120.373535,965.910400 2120.353760,950.344666 2120.353760,934.909424 
	C2122.173096,934.322449 2123.077637,933.854919 2124.021973,933.752075 
	C2140.615479,931.942810 2150.428223,921.058777 2149.931885,902.285278 
	C2149.060791,869.314209 2149.710938,836.303528 2149.658447,803.309570 
	C2149.652832,799.670227 2149.482910,795.992859 2148.947998,792.398865 
	C2145.326416,768.067871 2132.285156,749.216248 2113.841309,733.871277 
	C2089.596436,713.699707 2061.200439,703.357605 2030.122437,699.621826 
	C1998.885620,695.866760 1968.168701,698.248230 1939.040283,710.220520 
	C1925.311523,715.863281 1913.606201,715.310120 1899.904175,710.222107 
	C1854.551025,693.380737 1808.763184,693.697021 1763.651978,711.546326 
	C1752.281006,716.045410 1742.127197,716.266724 1731.071899,711.336853 
	C1712.338867,702.983276 1692.275635,699.575378 1671.996704,698.467224 
	C1643.110229,696.888916 1614.921753,701.079590 1588.148438,712.463013 
	C1579.293091,716.228210 1571.100708,716.504150 1562.242798,712.576172 
	C1542.906738,704.001770 1522.356201,699.709656 1501.394775,698.503296 
	C1472.203247,696.823181 1443.587891,700.639587 1416.487915,712.190002 
	C1406.911255,716.271667 1398.138550,716.259460 1388.649048,712.231873 
	C1357.626587,699.065247 1325.244019,695.615417 1291.935425,699.660889 
	C1259.796509,703.564270 1230.633301,714.745178 1205.943359,736.021301 
	C1186.263184,752.980469 1173.315552,774.266663 1172.570312,800.613831 
	C1171.562500,836.245544 1172.132935,871.928711 1172.418335,907.586670 
	C1172.520752,920.377991 1180.156250,928.958618 1192.909790,932.461243 
	C1195.734131,933.237000 1198.540527,934.078064 1201.646118,934.972900 
	C1201.646118,944.275085 1201.294434,953.273254 1201.728516,962.233398 
	C1202.379517,975.669861 1198.710205,989.619751 1206.118652,1002.348145 
	C1206.563843,1003.112793 1206.294678,1004.314819 1206.295410,1005.313293 
	C1206.304199,1017.295532 1206.301025,1029.277710 1206.301025,1041.676392 
	C1189.545776,1047.770264 1185.412231,1060.800903 1186.225342,1076.860352 
	C1186.696655,1086.168091 1186.135254,1095.524048 1186.385254,1104.848999 
	C1186.508789,1109.454590 1185.657104,1112.944458 1181.671997,1116.015503 
	C1174.931152,1121.210327 1172.106323,1128.661377 1172.351562,1137.100220 
	C1172.640747,1147.050537 1172.582275,1157.070190 1173.786865,1166.923828 
	C1177.655762,1198.571533 1191.785034,1225.075195 1215.423950,1246.426270 
	C1241.397705,1269.886230 1272.462891,1279.659180 1306.944702,1279.664917 
	C1538.569580,1279.703369 1770.194580,1279.702637 2001.819458,1279.628540 
	C2012.432861,1279.625122 2023.072876,1279.137939 2033.654663,1278.297974 
	C2085.348389,1274.194458 2129.650391,1236.684082 2144.413574,1187.948120 
	C2149.930176,1169.736938 2150.041992,1151.232666 2149.576660,1132.612305 
	C2149.403076,1125.665405 2146.214355,1119.512207 2140.407471,1115.673462 
	C2136.408447,1113.029785 2135.344238,1109.957764 2135.659424,1105.676514 
	C2135.830078,1103.356201 2135.689453,1101.012817 2135.689209,1096.760742 
M1654.914429,567.403198 
	C1650.410522,571.317688 1645.898193,575.222595 1641.404785,579.148987 
	C1633.651978,585.923157 1632.370361,593.124634 1637.457153,601.216919 
	C1641.764526,608.069153 1650.438232,610.490906 1658.535889,605.855530 
	C1678.858398,594.222229 1691.226807,577.348083 1692.454712,553.082153 
	C1693.405518,534.293945 1687.157471,517.993896 1677.818115,502.198425 
	C1672.447144,493.114594 1667.588989,483.533173 1664.004761,473.631012 
	C1657.989136,457.011200 1662.326660,440.252533 1679.197754,432.114716 
	C1680.378174,431.545288 1681.504517,430.786652 1682.507812,429.940308 
	C1687.973877,425.328552 1689.883545,417.234070 1687.053955,410.953064 
	C1684.187256,404.589600 1676.966797,400.583710 1669.821899,401.877960 
	C1666.946777,402.398743 1664.058960,403.596863 1661.513062,405.068512 
	C1641.208740,416.805511 1630.349121,434.307190 1629.638428,457.913971 
	C1629.208374,472.195435 1632.620361,485.633148 1638.940552,498.293854 
	C1644.576050,509.582977 1651.172852,520.408691 1656.479370,531.840881 
	C1661.719727,543.130188 1662.895264,554.850891 1654.914429,567.403198 
M1890.044312,458.677063 
	C1895.206177,449.434479 1894.942749,442.450317 1889.223022,436.906921 
	C1883.594116,431.451569 1876.286133,430.749695 1868.011475,435.295166 
	C1852.429565,443.854767 1841.430542,456.393616 1837.307373,473.876984 
	C1833.479858,490.106903 1834.722412,506.316101 1841.261719,521.727112 
	C1845.014038,530.569946 1849.920776,538.917725 1854.164917,547.558594 
	C1857.810303,554.980835 1862.025879,562.245972 1864.615479,570.037170 
	C1869.300903,584.134155 1865.015625,596.173828 1853.267700,605.341919 
	C1850.650269,607.384399 1847.750122,609.099365 1845.307983,611.324829 
	C1840.081909,616.086914 1838.997192,622.100891 1841.213989,628.616455 
	C1843.404907,635.055786 1848.515869,638.049988 1855.823242,638.427490 
	C1861.205322,638.705566 1865.470337,636.533447 1869.651001,633.673706 
	C1894.827271,616.452637 1904.970337,586.307251 1894.610107,557.219666 
	C1891.406616,548.225830 1886.250000,539.934082 1882.081543,531.275696 
	C1877.773438,522.327209 1872.196533,513.701843 1869.617065,504.267395 
	C1863.842407,483.146362 1868.826904,472.316040 1885.025513,462.666199 
	C1886.447632,461.819000 1887.755371,460.779968 1890.044312,458.677063 
M1456.560059,482.815460 
	C1458.013062,479.848511 1458.871338,476.312683 1461.047485,474.037476 
	C1465.106201,469.794098 1469.735718,466.017639 1474.482056,462.529114 
	C1482.044922,456.970703 1484.830322,448.238586 1480.947876,440.708496 
	C1477.242920,433.522736 1467.783203,430.513092 1459.397339,434.164978 
	C1456.078125,435.610474 1452.872070,437.505737 1449.957520,439.660156 
	C1428.236206,455.716888 1420.852661,477.509369 1425.058960,503.616730 
	C1427.694458,519.975281 1435.506470,534.292664 1443.496216,548.531311 
	C1447.053711,554.871155 1450.376099,561.409851 1453.057739,568.155457 
	C1455.784546,575.014709 1456.754761,582.228943 1453.912720,589.511963 
	C1450.492676,598.276184 1443.856079,604.140320 1436.584106,609.573242 
	C1429.677002,614.733459 1427.490112,622.579102 1430.632324,629.790344 
	C1433.522827,636.424011 1440.840454,639.892700 1449.042725,638.129883 
	C1451.570190,637.586731 1454.066895,636.347229 1456.270020,634.943542 
	C1465.963623,628.767212 1473.903809,620.793762 1479.447754,610.681824 
	C1492.397217,587.062866 1488.546875,563.948181 1476.791016,541.287537 
	C1473.279419,534.518677 1468.729736,528.286621 1465.246094,521.505310 
	C1459.298096,509.927338 1454.114258,498.038940 1456.560059,482.815460 
z"/>
<path fill="#C5B266" opacity="1.000000" stroke="none" 
	d="
M2135.689209,1097.720337 
	C2135.689453,1101.012817 2135.830078,1103.356201 2135.659424,1105.676514 
	C2135.344238,1109.957764 2136.408447,1113.029785 2140.407471,1115.673462 
	C2146.214355,1119.512207 2149.403076,1125.665405 2149.576660,1132.612305 
	C2150.041992,1151.232666 2149.930176,1169.736938 2144.413574,1187.948120 
	C2129.650391,1236.684082 2085.348389,1274.194458 2033.654663,1278.297974 
	C2023.072876,1279.137939 2012.432861,1279.625122 2001.819458,1279.628540 
	C1770.194580,1279.702637 1538.569580,1279.703369 1306.944702,1279.664917 
	C1272.462891,1279.659180 1241.397705,1269.886230 1215.423950,1246.426270 
	C1191.785034,1225.075195 1177.655762,1198.571533 1173.786865,1166.923828 
	C1172.582275,1157.070190 1172.640747,1147.050537 1172.351562,1137.100220 
	C1172.106323,1128.661377 1174.931152,1121.210327 1181.671997,1116.015503 
	C1185.657104,1112.944458 1186.508789,1109.454590 1186.385254,1104.848999 
	C1186.135254,1095.524048 1186.696655,1086.168091 1186.225342,1076.860352 
	C1185.412231,1060.800903 1189.545776,1047.770264 1206.301025,1041.676392 
	C1206.301025,1029.277710 1206.304199,1017.295532 1206.295410,1005.313293 
	C1206.294678,1004.314819 1206.563843,1003.112793 1206.118652,1002.348145 
	C1198.710205,989.619751 1202.379517,975.669861 1201.728516,962.233398 
	C1201.294434,953.273254 1201.646118,944.275085 1201.646118,934.972900 
	C1198.540527,934.078064 1195.734131,933.237000 1192.909790,932.461243 
	C1180.156250,928.958618 1172.520752,920.377991 1172.418335,907.586670 
	C1172.132935,871.928711 1171.562500,836.245544 1172.570312,800.613831 
	C1173.315552,774.266663 1186.263184,752.980469 1205.943359,736.021301 
	C1230.633301,714.745178 1259.796509,703.564270 1291.935425,699.660889 
	C1325.244019,695.615417 1357.626587,699.065247 1388.649048,712.231873 
	C1398.138550,716.259460 1406.911255,716.271667 1416.487915,712.190002 
	C1443.587891,700.639587 1472.203247,696.823181 1501.394775,698.503296 
	C1522.356201,699.709656 1542.906738,704.001770 1562.242798,712.576172 
	C1571.100708,716.504150 1579.293091,716.228210 1588.148438,712.463013 
	C1614.921753,701.079590 1643.110229,696.888916 1671.996704,698.467224 
	C1692.275635,699.575378 1712.338867,702.983276 1731.071899,711.336853 
	C1742.127197,716.266724 1752.281006,716.045410 1763.651978,711.546326 
	C1808.763184,693.697021 1854.551025,693.380737 1899.904175,710.222107 
	C1913.606201,715.310120 1925.311523,715.863281 1939.040283,710.220520 
	C1968.168701,698.248230 1998.885620,695.866760 2030.122437,699.621826 
	C2061.200439,703.357605 2089.596436,713.699707 2113.841309,733.871277 
	C2132.285156,749.216248 2145.326416,768.067871 2148.947998,792.398865 
	C2149.482910,795.992859 2149.652832,799.670227 2149.658447,803.309570 
	C2149.710938,836.303528 2149.060791,869.314209 2149.931885,902.285278 
	C2150.428223,921.058777 2140.615479,931.942810 2124.021973,933.752075 
	C2123.077637,933.854919 2122.173096,934.322449 2120.353760,934.909424 
	C2120.353760,950.344666 2120.373535,965.910400 2120.344482,981.476013 
	C2120.332275,988.092957 2121.129639,994.805664 2116.636719,1000.686951 
	C2115.588135,1002.059509 2115.744629,1004.523438 2115.731201,1006.487793 
	C2115.654785,1017.805725 2115.694092,1029.124390 2115.694092,1041.010742 
	C2117.769043,1042.068848 2119.794434,1043.039551 2121.761963,1044.115601 
	C2131.102539,1049.224243 2135.577637,1057.250244 2135.669678,1067.767578 
	C2135.753906,1077.431274 2135.688477,1087.096313 2135.689209,1097.720337 
M1946.999878,901.655579 
	C2003.871826,901.655579 2060.743652,901.655579 2117.633789,901.655579 
	C2117.969482,899.024658 2118.279053,897.723450 2118.280273,896.421875 
	C2118.312500,866.755798 2118.535400,837.086731 2118.146973,807.425781 
	C2118.057373,800.586914 2116.572998,793.544189 2114.472656,786.998840 
	C2109.683350,772.073547 2099.160156,761.189880 2086.387939,752.980347 
	C2046.604370,727.409241 2003.807861,724.316223 1959.090576,737.160889 
	C1953.341431,738.812256 1949.232056,741.948181 1945.566650,746.636353 
	C1932.863403,762.884766 1919.801636,778.853149 1906.849731,794.906677 
	C1905.183594,796.971863 1903.577881,799.169006 1901.568481,800.857971 
	C1896.167969,805.396790 1889.880127,805.655029 1883.762085,802.952759 
	C1877.636841,800.247437 1874.601562,794.866272 1875.842896,788.308960 
	C1876.665894,783.961060 1878.517212,779.427551 1881.126343,775.870789 
	C1888.347412,766.027954 1896.206909,756.653687 1903.774658,747.143433 
	C1902.743530,746.161316 1902.343262,745.532043 1901.774658,745.274048 
	C1863.521729,727.920288 1824.390747,725.460571 1784.211670,737.936462 
	C1777.189819,740.116882 1772.037109,743.773193 1767.558228,749.559509 
	C1754.936157,765.866333 1741.907593,781.861694 1728.879639,797.849792 
	C1723.039062,805.017456 1712.244629,806.634949 1705.766846,801.710632 
	C1698.812744,796.424011 1697.680176,786.390564 1703.304810,778.390442 
	C1705.213013,775.676208 1707.605469,773.307800 1709.651123,770.683594 
	C1716.129883,762.372437 1722.549438,754.015198 1729.302979,745.272888 
	C1688.520630,727.282959 1648.158325,725.211060 1606.964722,739.536499 
	C1600.112183,741.919617 1594.781860,745.589539 1590.317505,751.410828 
	C1578.985107,766.187988 1567.170776,780.596558 1555.498413,795.111755 
	C1553.630371,797.434692 1551.785522,799.931580 1549.432373,801.677551 
	C1544.124390,805.616150 1538.024902,805.506348 1532.400146,802.794983 
	C1526.930298,800.158325 1524.336060,795.283691 1524.250732,788.968811 
	C1524.177124,783.521667 1526.815796,779.512939 1529.962891,775.557312 
	C1538.021729,765.428101 1546.035400,755.263000 1554.322876,744.789062 
	C1552.360962,743.683838 1551.005493,742.703796 1549.499023,742.103210 
	C1509.009766,725.963196 1468.572510,726.161316 1427.995605,742.056213 
	C1421.775024,744.492920 1417.295532,748.184082 1413.317261,753.273865 
	C1402.665039,766.901917 1391.781006,780.349365 1380.929077,793.820435 
	C1378.848389,796.403259 1376.784790,799.133484 1374.214111,801.163757 
	C1365.015991,808.428589 1351.619507,803.881653 1348.769653,792.580261 
	C1347.372192,787.038940 1349.099243,782.177246 1352.680176,777.751587 
	C1360.421509,768.183960 1368.044312,758.519104 1375.606812,748.809204 
	C1376.891235,747.160217 1377.633179,745.088806 1378.712769,743.048218 
	C1376.147583,741.890320 1374.367065,740.969788 1372.505127,740.263550 
	C1343.467651,729.249939 1313.734253,726.944458 1283.369629,733.412415 
	C1262.914429,737.769592 1243.984375,745.483093 1227.870850,759.248718 
	C1212.655762,772.247009 1203.988403,788.143005 1204.256226,808.703003 
	C1204.612183,836.031189 1204.327637,863.367493 1204.365112,890.700317 
	C1204.369873,894.202148 1204.656250,897.703552 1204.832275,901.655579 
	C1452.386108,901.655579 1698.692993,901.655579 1946.999878,901.655579 
M2012.798096,1247.653076 
	C2019.076660,1247.223267 2025.393311,1247.097534 2031.627441,1246.313721 
	C2069.199219,1241.589600 2095.222168,1221.210083 2110.531250,1186.995605 
	C2116.825928,1172.927856 2119.080566,1157.982788 2117.834717,1142.316650 
	C1813.194702,1142.316650 1509.212646,1142.316650 1204.586792,1142.316650 
	C1202.963623,1167.146240 1209.368530,1189.066528 1223.956543,1208.203735 
	C1244.266357,1234.847290 1271.880981,1247.596924 1305.183716,1247.608643 
	C1540.405029,1247.691895 1775.626221,1247.653076 2012.798096,1247.653076 
M1471.000122,933.676208 
	C1392.155884,933.676208 1313.311646,933.676208 1234.392334,933.676208 
	C1234.392334,949.040894 1234.392334,963.163879 1234.392334,978.486267 
	C1245.942261,975.738037 1256.617310,973.456055 1267.148315,970.635986 
	C1286.568115,965.435730 1306.370605,963.713684 1326.355347,963.759094 
	C1348.096802,963.808533 1369.161865,968.133850 1390.156372,973.599243 
	C1422.280396,981.961914 1454.473145,981.229492 1486.526245,972.319702 
	C1528.149536,960.749695 1569.867920,960.682068 1611.404419,972.665771 
	C1628.510010,977.600891 1646.010498,979.550537 1663.563232,979.386230 
	C1679.092529,979.240845 1694.630737,977.379761 1709.775513,972.973083 
	C1752.643921,960.499756 1795.619629,960.619019 1838.497681,973.034729 
	C1854.275635,977.603394 1870.489868,979.512146 1886.711914,979.404724 
	C1903.593994,979.293030 1920.427124,977.352966 1936.877563,972.624146 
	C1979.114014,960.482727 2021.399902,960.835693 2063.658691,972.937622 
	C2071.257568,975.113770 2079.116699,976.381165 2088.271729,978.376770 
	C2088.305664,962.854614 2088.457764,948.474670 2088.165283,934.363831 
	C2086.078613,933.985352 2085.431152,933.765015 2084.783447,933.764832 
	C1880.855713,933.725281 1676.927979,933.700928 1471.000122,933.676208 
M2030.999878,1041.674316 
	C2048.220459,1041.674316 2065.441162,1041.674316 2083.154541,1041.674316 
	C2083.154541,1030.598755 2083.154541,1020.719666 2083.154541,1010.488892 
	C2081.031250,1009.794800 2078.897705,1008.919128 2076.680664,1008.403687 
	C2067.305420,1006.224060 2057.841797,1004.398193 2048.525879,1001.995789 
	C2014.968506,993.341797 1981.426392,993.030212 1948.156616,1002.870667 
	C1927.855713,1008.875183 1907.028931,1011.123352 1886.200684,1011.283020 
	C1863.298096,1011.458435 1840.747559,1007.221008 1818.478516,1001.183411 
	C1789.086060,993.214600 1759.354858,993.866272 1729.733887,1000.883484 
	C1717.466187,1003.789612 1705.192627,1006.729736 1692.812500,1009.079651 
	C1686.083862,1010.356873 1679.126465,1010.428833 1671.655640,1011.099731 
	C1672.184814,1021.510681 1670.559692,1031.345459 1672.762695,1041.674316 
	C1791.859253,1041.674316 1910.429565,1041.674316 2030.999878,1041.674316 
M1281.000366,1041.674561 
	C1400.525391,1041.674561 1520.050415,1041.674561 1639.660400,1041.674561 
	C1639.660400,1030.514771 1639.660400,1020.685730 1639.660400,1011.663757 
	C1623.047485,1007.776855 1607.297974,1003.907837 1591.463257,1000.426575 
	C1561.802856,993.905823 1532.068237,993.403442 1502.644287,1001.430054 
	C1477.168579,1008.379578 1451.521606,1011.777527 1425.030273,1010.568787 
	C1408.622437,1009.820190 1392.574951,1007.880737 1376.878418,1003.376648 
	C1342.506592,993.514038 1308.127197,993.059387 1273.540649,1002.135925 
	C1262.036621,1005.154785 1250.390747,1007.633789 1238.407471,1010.454285 
	C1238.453247,1020.961121 1237.898682,1031.113037 1238.801025,1041.674561 
	C1253.038940,1041.674561 1266.019775,1041.674561 1281.000366,1041.674561 
M1551.007080,1109.669678 
	C1634.570679,1109.524536 1718.134277,1109.379761 1801.697876,1109.209351 
	C1801.953003,1109.208862 1802.218140,1108.845459 1802.459473,1108.630127 
	C1802.707642,1108.408936 1802.931763,1108.161011 1802.998047,1108.094360 
	C1802.998047,1096.735718 1802.998047,1085.554321 1802.998047,1074.336914 
	C1707.944458,1074.336914 1613.564087,1074.336914 1518.649536,1074.336914 
	C1518.231201,1086.435425 1518.075439,1097.838135 1518.678955,1109.669678 
	C1529.728149,1109.669678 1539.370117,1109.669678 1551.007080,1109.669678 
M1409.000122,1073.661987 
	C1346.089233,1073.821777 1283.178467,1073.980957 1220.267700,1074.162598 
	C1220.001221,1074.163330 1219.707764,1074.454590 1219.477539,1074.665527 
	C1219.235107,1074.887939 1219.053833,1075.177002 1219.048340,1075.183838 
	C1219.048340,1086.597412 1219.048340,1097.745850 1219.048340,1108.958984 
	C1308.796265,1108.958984 1397.823853,1108.958984 1487.140625,1108.958984 
	C1487.140625,1097.079590 1487.140625,1085.917114 1487.140625,1073.661865 
	C1461.418213,1073.661865 1436.209229,1073.661865 1409.000122,1073.661987 
M1835.668213,1098.728516 
	C1835.843750,1102.217529 1836.019287,1105.706421 1836.183472,1108.969116 
	C1925.876221,1108.969116 2014.351318,1108.969116 2103.666016,1108.969116 
	C2103.666016,1099.348999 2103.696777,1090.409668 2103.644775,1081.470703 
	C2103.631592,1079.217773 2103.353271,1076.966431 2103.169922,1074.323730 
	C2013.864990,1074.323730 1925.122314,1074.323730 1835.668213,1074.323730 
	C1835.668213,1082.245850 1835.668213,1089.524780 1835.668213,1098.728516 
z"/>
<path fill="#C4B266" opacity="1.000000" stroke="none" 
	d="
M1655.344849,566.770020 
	C1662.895264,554.850891 1661.719727,543.130188 1656.479370,531.840881 
	C1651.172852,520.408691 1644.576050,509.582977 1638.940552,498.293854 
	C1632.620361,485.633148 1629.208374,472.195435 1629.638428,457.913971 
	C1630.349121,434.307190 1641.208740,416.805511 1661.513062,405.068512 
	C1664.058960,403.596863 1666.946777,402.398743 1669.821899,401.877960 
	C1676.966797,400.583710 1684.187256,404.589600 1687.053955,410.953064 
	C1689.883545,417.234070 1687.973877,425.328552 1682.507812,429.940308 
	C1681.504517,430.786652 1680.378174,431.545288 1679.197754,432.114716 
	C1662.326660,440.252533 1657.989136,457.011200 1664.004761,473.631012 
	C1667.588989,483.533173 1672.447144,493.114594 1677.818115,502.198425 
	C1687.157471,517.993896 1693.405518,534.293945 1692.454712,553.082153 
	C1691.226807,577.348083 1678.858398,594.222229 1658.535889,605.855530 
	C1650.438232,610.490906 1641.764526,608.069153 1637.457153,601.216919 
	C1632.370361,593.124634 1633.651978,585.923157 1641.404785,579.148987 
	C1645.898193,575.222595 1650.410522,571.317688 1655.344849,566.770020 
z"/>
<path fill="#C4B266" opacity="1.000000" stroke="none" 
	d="
M1889.580322,459.253571 
	C1887.755371,460.779968 1886.447632,461.819000 1885.025513,462.666199 
	C1868.826904,472.316040 1863.842407,483.146362 1869.617065,504.267395 
	C1872.196533,513.701843 1877.773438,522.327209 1882.081543,531.275696 
	C1886.250000,539.934082 1891.406616,548.225830 1894.610107,557.219666 
	C1904.970337,586.307251 1894.827271,616.452637 1869.651001,633.673706 
	C1865.470337,636.533447 1861.205322,638.705566 1855.823242,638.427490 
	C1848.515869,638.049988 1843.404907,635.055786 1841.213989,628.616455 
	C1838.997192,622.100891 1840.081909,616.086914 1845.307983,611.324829 
	C1847.750122,609.099365 1850.650269,607.384399 1853.267700,605.341919 
	C1865.015625,596.173828 1869.300903,584.134155 1864.615479,570.037170 
	C1862.025879,562.245972 1857.810303,554.980835 1854.164917,547.558594 
	C1849.920776,538.917725 1845.014038,530.569946 1841.261719,521.727112 
	C1834.722412,506.316101 1833.479858,490.106903 1837.307373,473.876984 
	C1841.430542,456.393616 1852.429565,443.854767 1868.011475,435.295166 
	C1876.286133,430.749695 1883.594116,431.451569 1889.223022,436.906921 
	C1894.942749,442.450317 1895.206177,449.434479 1889.580322,459.253571 
z"/>
<path fill="#C4B266" opacity="1.000000" stroke="none" 
	d="
M1456.451416,483.628113 
	C1454.114258,498.038940 1459.298096,509.927338 1465.246094,521.505310 
	C1468.729736,528.286621 1473.279419,534.518677 1476.791016,541.287537 
	C1488.546875,563.948181 1492.397217,587.062866 1479.447754,610.681824 
	C1473.903809,620.793762 1465.963623,628.767212 1456.270020,634.943542 
	C1454.066895,636.347229 1451.570190,637.586731 1449.042725,638.129883 
	C1440.840454,639.892700 1433.522827,636.424011 1430.632324,629.790344 
	C1427.490112,622.579102 1429.677002,614.733459 1436.584106,609.573242 
	C1443.856079,604.140320 1450.492676,598.276184 1453.912720,589.511963 
	C1456.754761,582.228943 1455.784546,575.014709 1453.057739,568.155457 
	C1450.376099,561.409851 1447.053711,554.871155 1443.496216,548.531311 
	C1435.506470,534.292664 1427.694458,519.975281 1425.058960,503.616730 
	C1420.852661,477.509369 1428.236206,455.716888 1449.957520,439.660156 
	C1452.872070,437.505737 1456.078125,435.610474 1459.397339,434.164978 
	C1467.783203,430.513092 1477.242920,433.522736 1480.947876,440.708496 
	C1484.830322,448.238586 1482.044922,456.970703 1474.482056,462.529114 
	C1469.735718,466.017639 1465.106201,469.794098 1461.047485,474.037476 
	C1458.871338,476.312683 1458.013062,479.848511 1456.451416,483.628113 
z"/>
<path fill="#010101" opacity="0.000000" stroke="none" 
	d="
M1945.999756,901.655579 
	C1698.692993,901.655579 1452.386108,901.655579 1204.832275,901.655579 
	C1204.656250,897.703552 1204.369873,894.202148 1204.365112,890.700317 
	C1204.327637,863.367493 1204.612183,836.031189 1204.256226,808.703003 
	C1203.988403,788.143005 1212.655762,772.247009 1227.870850,759.248718 
	C1243.984375,745.483093 1262.914429,737.769592 1283.369629,733.412415 
	C1313.734253,726.944458 1343.467651,729.249939 1372.505127,740.263550 
	C1374.367065,740.969788 1376.147583,741.890320 1378.712769,743.048218 
	C1377.633179,745.088806 1376.891235,747.160217 1375.606812,748.809204 
	C1368.044312,758.519104 1360.421509,768.183960 1352.680176,777.751587 
	C1349.099243,782.177246 1347.372192,787.038940 1348.769653,792.580261 
	C1351.619507,803.881653 1365.015991,808.428589 1374.214111,801.163757 
	C1376.784790,799.133484 1378.848389,796.403259 1380.929077,793.820435 
	C1391.781006,780.349365 1402.665039,766.901917 1413.317261,753.273865 
	C1417.295532,748.184082 1421.775024,744.492920 1427.995605,742.056213 
	C1468.572510,726.161316 1509.009766,725.963196 1549.499023,742.103210 
	C1551.005493,742.703796 1552.360962,743.683838 1554.322876,744.789062 
	C1546.035400,755.263000 1538.021729,765.428101 1529.962891,775.557312 
	C1526.815796,779.512939 1524.177124,783.521667 1524.250732,788.968811 
	C1524.336060,795.283691 1526.930298,800.158325 1532.400146,802.794983 
	C1538.024902,805.506348 1544.124390,805.616150 1549.432373,801.677551 
	C1551.785522,799.931580 1553.630371,797.434692 1555.498413,795.111755 
	C1567.170776,780.596558 1578.985107,766.187988 1590.317505,751.410828 
	C1594.781860,745.589539 1600.112183,741.919617 1606.964722,739.536499 
	C1648.158325,725.211060 1688.520630,727.282959 1729.302979,745.272888 
	C1722.549438,754.015198 1716.129883,762.372437 1709.651123,770.683594 
	C1707.605469,773.307800 1705.213013,775.676208 1703.304810,778.390442 
	C1697.680176,786.390564 1698.812744,796.424011 1705.766846,801.710632 
	C1712.244629,806.634949 1723.039062,805.017456 1728.879639,797.849792 
	C1741.907593,781.861694 1754.936157,765.866333 1767.558228,749.559509 
	C1772.037109,743.773193 1777.189819,740.116882 1784.211670,737.936462 
	C1824.390747,725.460571 1863.521729,727.920288 1901.774658,745.274048 
	C1902.343262,745.532043 1902.743530,746.161316 1903.774658,747.143433 
	C1896.206909,756.653687 1888.347412,766.027954 1881.126343,775.870789 
	C1878.517212,779.427551 1876.665894,783.961060 1875.842896,788.308960 
	C1874.601562,794.866272 1877.636841,800.247437 1883.762085,802.952759 
	C1889.880127,805.655029 1896.167969,805.396790 1901.568481,800.857971 
	C1903.577881,799.169006 1905.183594,796.971863 1906.849731,794.906677 
	C1919.801636,778.853149 1932.863403,762.884766 1945.566650,746.636353 
	C1949.232056,741.948181 1953.341431,738.812256 1959.090576,737.160889 
	C2003.807861,724.316223 2046.604370,727.409241 2086.387939,752.980347 
	C2099.160156,761.189880 2109.683350,772.073547 2114.472656,786.998840 
	C2116.572998,793.544189 2118.057373,800.586914 2118.146973,807.425781 
	C2118.535400,837.086731 2118.312500,866.755798 2118.280273,896.421875 
	C2118.279053,897.723450 2117.969482,899.024658 2117.633789,901.655579 
	C2060.743652,901.655579 2003.871826,901.655579 1945.999756,901.655579 
z"/>
<path fill="#010101" opacity="1.000000" stroke="none" 
	d="
M2011.822754,1247.653076 
	C1775.626221,1247.653076 1540.405029,1247.691895 1305.183716,1247.608643 
	C1271.880981,1247.596924 1244.266357,1234.847290 1223.956543,1208.203735 
	C1209.368530,1189.066528 1202.963623,1167.146240 1204.586792,1142.316650 
	C1509.212646,1142.316650 1813.194702,1142.316650 2117.834717,1142.316650 
	C2119.080566,1157.982788 2116.825928,1172.927856 2110.531250,1186.995605 
	C2095.222168,1221.210083 2069.199219,1241.589600 2031.627441,1246.313721 
	C2025.393311,1247.097534 2019.076660,1247.223267 2011.822754,1247.653076 
z"/>
<path fill="#010101" opacity="1.000000" stroke="none" 
	d="
M1472.000244,933.676208 
	C1676.927979,933.700928 1880.855713,933.725281 2084.783447,933.764832 
	C2085.431152,933.765015 2086.078613,933.985352 2088.165283,934.363831 
	C2088.457764,948.474670 2088.305664,962.854614 2088.271729,978.376770 
	C2079.116699,976.381165 2071.257568,975.113770 2063.658691,972.937622 
	C2021.399902,960.835693 1979.114014,960.482727 1936.877563,972.624146 
	C1920.427124,977.352966 1903.593994,979.293030 1886.711914,979.404724 
	C1870.489868,979.512146 1854.275635,977.603394 1838.497681,973.034729 
	C1795.619629,960.619019 1752.643921,960.499756 1709.775513,972.973083 
	C1694.630737,977.379761 1679.092529,979.240845 1663.563232,979.386230 
	C1646.010498,979.550537 1628.510010,977.600891 1611.404419,972.665771 
	C1569.867920,960.682068 1528.149536,960.749695 1486.526245,972.319702 
	C1454.473145,981.229492 1422.280396,981.961914 1390.156372,973.599243 
	C1369.161865,968.133850 1348.096802,963.808533 1326.355347,963.759094 
	C1306.370605,963.713684 1286.568115,965.435730 1267.148315,970.635986 
	C1256.617310,973.456055 1245.942261,975.738037 1234.392334,978.486267 
	C1234.392334,963.163879 1234.392334,949.040894 1234.392334,933.676208 
	C1313.311646,933.676208 1392.155884,933.676208 1472.000244,933.676208 
z"/>
<path fill="#040402" opacity="1.000000" stroke="none" 
	d="
M2029.999756,1041.674316 
	C1910.429565,1041.674316 1791.859253,1041.674316 1672.762695,1041.674316 
	C1670.559692,1031.345459 1672.184814,1021.510681 1671.655640,1011.099731 
	C1679.126465,1010.428833 1686.083862,1010.356873 1692.812500,1009.079651 
	C1705.192627,1006.729736 1717.466187,1003.789612 1729.733887,1000.883484 
	C1759.354858,993.866272 1789.086060,993.214600 1818.478516,1001.183411 
	C1840.747559,1007.221008 1863.298096,1011.458435 1886.200684,1011.283020 
	C1907.028931,1011.123352 1927.855713,1008.875183 1948.156616,1002.870667 
	C1981.426392,993.030212 2014.968506,993.341797 2048.525879,1001.995789 
	C2057.841797,1004.398193 2067.305420,1006.224060 2076.680664,1008.403687 
	C2078.897705,1008.919128 2081.031250,1009.794800 2083.154541,1010.488892 
	C2083.154541,1020.719666 2083.154541,1030.598755 2083.154541,1041.674316 
	C2065.441162,1041.674316 2048.220459,1041.674316 2029.999756,1041.674316 
z"/>
<path fill="#040402" opacity="1.000000" stroke="none" 
	d="
M1280.000488,1041.674561 
	C1266.019775,1041.674561 1253.038940,1041.674561 1238.801025,1041.674561 
	C1237.898682,1031.113037 1238.453247,1020.961121 1238.407471,1010.454285 
	C1250.390747,1007.633789 1262.036621,1005.154785 1273.540649,1002.135925 
	C1308.127197,993.059387 1342.506592,993.514038 1376.878418,1003.376648 
	C1392.574951,1007.880737 1408.622437,1009.820190 1425.030273,1010.568787 
	C1451.521606,1011.777527 1477.168579,1008.379578 1502.644287,1001.430054 
	C1532.068237,993.403442 1561.802856,993.905823 1591.463257,1000.426575 
	C1607.297974,1003.907837 1623.047485,1007.776855 1639.660400,1011.663757 
	C1639.660400,1020.685730 1639.660400,1030.514771 1639.660400,1041.674561 
	C1520.050415,1041.674561 1400.525391,1041.674561 1280.000488,1041.674561 
z"/>
<path fill="#030302" opacity="1.000000" stroke="none" 
	d="
M1550.009644,1109.669678 
	C1539.370117,1109.669678 1529.728149,1109.669678 1518.678955,1109.669678 
	C1518.075439,1097.838135 1518.231201,1086.435425 1518.649536,1074.336914 
	C1613.564087,1074.336914 1707.944458,1074.336914 1802.998047,1074.336914 
	C1802.998047,1085.554321 1802.998047,1096.735718 1802.998047,1108.094360 
	C1802.931763,1108.161011 1802.707642,1108.408936 1802.459473,1108.630127 
	C1802.218140,1108.845459 1801.953003,1109.208862 1801.697876,1109.209351 
	C1718.134277,1109.379761 1634.570679,1109.524536 1550.009644,1109.669678 
z"/>
<path fill="#040302" opacity="1.000000" stroke="none" 
	d="
M1410.000244,1073.661865 
	C1436.209229,1073.661865 1461.418213,1073.661865 1487.140625,1073.661865 
	C1487.140625,1085.917114 1487.140625,1097.079590 1487.140625,1108.958984 
	C1397.823853,1108.958984 1308.796265,1108.958984 1219.048340,1108.958984 
	C1219.048340,1097.745850 1219.048340,1086.597412 1219.048340,1075.183838 
	C1219.053833,1075.177002 1219.235107,1074.887939 1219.477539,1074.665527 
	C1219.707764,1074.454590 1220.001221,1074.163330 1220.267700,1074.162598 
	C1283.178467,1073.980957 1346.089233,1073.821777 1410.000244,1073.661865 
z"/>
<path fill="#030302" opacity="1.000000" stroke="none" 
	d="
M1835.668213,1097.766113 
	C1835.668213,1089.524780 1835.668213,1082.245850 1835.668213,1074.323730 
	C1925.122314,1074.323730 2013.864990,1074.323730 2103.169922,1074.323730 
	C2103.353271,1076.966431 2103.631592,1079.217773 2103.644775,1081.470703 
	C2103.696777,1090.409668 2103.666016,1099.348999 2103.666016,1108.969116 
	C2014.351318,1108.969116 1925.876221,1108.969116 1836.183472,1108.969116 
	C1836.019287,1105.706421 1835.843750,1102.217529 1835.668213,1097.766113 
z"/>
</svg>